<svg xmlns="http://www.w3.org/2000/svg" viewBox="85.77 234.68 439.63 143.62" fill="#0E2D30" xmlns:c2pa="http://c2pa.org/manifest"><metadata><c2pa:manifest>AAAWgmp1bWIAAAAeanVtZGMycGEAEQAQgAAAqgA4m3EDYzJwYQAAABZcanVtYgAAAEdqdW1kYzJtYQARABCAAACqADibcQN1cm46YzJwYTphNWUxMWY4NS0wODQ2LTQyMjQtYmQ2MS03MjlmNGEwNTMyNTcAAAADl2p1bWIAAAApanVtZGMyYXMAEQAQgAAAqgA4m3EDYzJwYS5hc3NlcnRpb25zAAAAALxqdW1iAAAARGp1bWRjYm9yABEAEIAAAKoAOJtxE2MycGEuaW5ncmVkaWVudC52MwAAAAAYYzJzaJLE3VE03h+uMjhuih9iMYgAAABwY2JvcqNpZGM6Zm9ybWF0bWltYWdlL3N2Zyt4bWxqaW5zdGFuY2VJRHgseG1wOmlpZDphYzM2MDY0ZS04ZDA3LTQ0ODMtYmY1MS1lM2FhNzgzZGFhZWRscmVsYXRpb25zaGlwaHBhcmVudE9mAAAB4mp1bWIAAABBanVtZGNib3IAEQAQgAAAqgA4m3ETYzJwYS5hY3Rpb25zLnYyAAAAABhjMnNo/Ubq5UDQ+nJcGx21wN131wAAAZljYm9yomdhY3Rpb25zgqJmYWN0aW9ua2MycGEub3BlbmVkanBhcmFtZXRlcnOha2luZ3JlZGllbnRzgaJjdXJseC1zZWxmI2p1bWJmPWMycGEuYXNzZXJ0aW9ucy9jMnBhLmluZ3JlZGllbnQudjNkaGFzaFggi1Y2X60xIdl+xNsQb0M1qrtim3EEviDDplPLu1qLMK+kZmFjdGlvbngdY29tLmFudGhyb3BpYy5jbGF1ZGUucHJvdmlkZWRqcGFyYW1ldGVyc6F4H2NvbS5hbnRocm9waWMub3JpZ2luLWNvbmZpZGVuY2VndW5rbm93bmtkZXNjcmlwdGlvbnhmQ2xhdWRlIHByb3ZpZGVkIHRoaXMgZmlsZSBhdCB0aGUgcmVxdWVzdCBvZiBhIHVzZXIgYW5kIG1heSBoYXZlIGNyZWF0ZWQgb3IgbW9kaWZpZWQgdGhlIGZpbGUgY29udGVudHMubXNvZnR3YXJlQWdlbnShZG5hbWVmQ2xhdWRlcmFsbEFjdGlvbnNJbmNsdWRlZPUAAADIanVtYgAAAEBqdW1kY2JvcgARABCAAACqADibcRNjMnBhLmhhc2guZGF0YQAAAAAYYzJzaC/zMehbn80syV38Xhk8fjoAAACAY2JvcqVjYWxnZnNoYTI1NmNwYWRNAAAAAAAAAAAAAAAAAGRoYXNoWCA8EiYnsiQRVxMviP8fRmHny3BuI9ITcRsWlBPI/K1BhGRuYW1lbmp1bWJmIG1hbmlmZXN0amV4Y2x1c2lvbnOBomVzdGFydBibZmxlbmd0aBkeBAAAAj5qdW1iAAAAJ2p1bWRjMmNsABEAEIAAAKoAOJtxA2MycGEuY2xhaW0udjIAAAACD2Nib3KlY2FsZ2ZzaGEyNTZpc2lnbmF0dXJleE1zZWxmI2p1bWJmPS9jMnBhL3VybjpjMnBhOmE1ZTExZjg1LTA4NDYtNDIyNC1iZDYxLTcyOWY0YTA1MzI1Ny9jMnBhLnNpZ25hdHVyZWppbnN0YW5jZUlEeCx4bXA6aWlkOmJjYTY3MTgwLTAxNmEtNDNiOC1hYTM1LTRhMGNhNDMxNjZkM3JjcmVhdGVkX2Fzc2VydGlvbnODomN1cmx4LXNlbGYjanVtYmY9YzJwYS5hc3NlcnRpb25zL2MycGEuaW5ncmVkaWVudC52M2RoYXNoWCCLVjZfrTEh2X7E2xBvQzWqu2KbcQS+IMOmU8u7Woswr6JjdXJseCpzZWxmI2p1bWJmPWMycGEuYXNzZXJ0aW9ucy9jMnBhLmFjdGlvbnMudjJkaGFzaFggo3LYP4s0MzVvJyh941V0YV7Zm0dVdnqEA6139Y5+pIWiY3VybHgpc2VsZiNqdW1iZj1jMnBhLmFzc2VydGlvbnMvYzJwYS5oYXNoLmRhdGFkaGFzaFgg6oHYBiBG5B7ZHfCjDwQwXWU4OGdzqSua7nfweB9toJ10Y2xhaW1fZ2VuZXJhdG9yX2luZm+jZG5hbWVvQW50aHJvcGljIEZpbGVzZ3ZlcnNpb25lMS4wLjBrc3BlY1ZlcnNpb25lMi40LjAAABA4anVtYgAAAChqdW1kYzJjcwARABCAAACqADibcQNjMnBhLnNpZ25hdHVyZQAAABAIY2JvctKEWQISogEmGCFZAgowggIGMIIBjaADAgECAhRA5aAK7sI50L64g/oGQgU9Z1UTADAKBggqhkjOPQQDAzBJMRcwFQYDVQQKEw5BbnRocm9waWMsIFBCQzEuMCwGA1UEAxMlQW50aHJvcGljIENvbnRlbnQgQ3JlZGVudGlhbHMgUm9vdCBDQTAeFw0yNjA4MDcxODQzNTZaFw0yODA4MDYxOTQzNTZaMEQxFzAVBgNVBAoTDkFudGhyb3BpYywgUEJDMSkwJwYDVQQDEyBBbnRocm9waWMgQ2xhdWRlIENvbnRlbnQgU2lnbmluZzBZMBMGByqGSM49AgEGCCqGSM49AwEHA0IABJh6CmvLUBgFFNU0vUKlOVtE6djd17L5SuwX0LemFisBM3dkd/3cyjxFA3Qo5S46fX0/ihY0VZ7mfb9KF703t5OjWDBWMA4GA1UdDwEB/wQEAwIHgDAVBgNVHSUEDjAMBgorBgEEAYPoXgIBMAwGA1UdEwEB/wQCMAAwHwYDVR0jBBgwFoAUzlHiBIFOZFsj+OPEz5o+nMHXXMIwCgYIKoZIzj0EAwMDZwAwZAIwMXMdFJ4BetLLVY7ORuE9noqbbAZOZn/aArXyTwFAZfKrPzxF2vPoJNf1+UCdg1XGAjBwX1zd9WGqYkqmL5SFqw1QySjr1zJfpJM9+1rdDwSPLMOPOjKuiXjoU/pUUeG9RwmhY3BhZFkNngAAAAAAAAAAAAAAAAAAAAAAAAAAAAAAAAAAAAAAAAAAAAAAAAAAAAAAAAAAAAAAAAAAAAAAAAAAAAAAAAAAAAAAAAAAAAAAAAAAAAAAAAAAAAAAAAAAAAAAAAAAAAAAAAAAAAAAAAAAAAAAAAAAAAAAAAAAAAAAAAAAAAAAAAAAAAAAAAAAAAAAAAAAAAAAAAAAAAAAAAAAAAAAAAAAAAAAAAAAAAAAAAAAAAAAAAAAAAAAAAAAAAAAAAAAAAAAAAAAAAAAAAAAAAAAAAAAAAAAAAAAAAAAAAAAAAAAAAAAAAAAAAAAAAAAAAAAAAAAAAAAAAAAAAAAAAAAAAAAAAAAAAAAAAAAAAAAAAAAAAAAAAAAAAAAAAAAAAAAAAAAAAAAAAAAAAAAAAAAAAAAAAAAAAAAAAAAAAAAAAAAAAAAAAAAAAAAAAAAAAAAAAAAAAAAAAAAAAAAAAAAAAAAAAAAAAAAAAAAAAAAAAAAAAAAAAAAAAAAAAAAAAAAAAAAAAAAAAAAAAAAAAAAAAAAAAAAAAAAAAAAAAAAAAAAAAAAAAAAAAAAAAAAAAAAAAAAAAAAAAAAAAAAAAAAAAAAAAAAAAAAAAAAAAAAAAAAAAAAAAAAAAAAAAAAAAAAAAAAAAAAAAAAAAAAAAAAAAAAAAAAAAAAAAAAAAAAAAAAAAAAAAAAAAAAAAAAAAAAAAAAAAAAAAAAAAAAAAAAAAAAAAAAAAAAAAAAAAAAAAAAAAAAAAAAAAAAAAAAAAAAAAAAAAAAAAAAAAAAAAAAAAAAAAAAAAAAAAAAAAAAAAAAAAAAAAAAAAAAAAAAAAAAAAAAAAAAAAAAAAAAAAAAAAAAAAAAAAAAAAAAAAAAAAAAAAAAAAAAAAAAAAAAAAAAAAAAAAAAAAAAAAAAAAAAAAAAAAAAAAAAAAAAAAAAAAAAAAAAAAAAAAAAAAAAAAAAAAAAAAAAAAAAAAAAAAAAAAAAAAAAAAAAAAAAAAAAAAAAAAAAAAAAAAAAAAAAAAAAAAAAAAAAAAAAAAAAAAAAAAAAAAAAAAAAAAAAAAAAAAAAAAAAAAAAAAAAAAAAAAAAAAAAAAAAAAAAAAAAAAAAAAAAAAAAAAAAAAAAAAAAAAAAAAAAAAAAAAAAAAAAAAAAAAAAAAAAAAAAAAAAAAAAAAAAAAAAAAAAAAAAAAAAAAAAAAAAAAAAAAAAAAAAAAAAAAAAAAAAAAAAAAAAAAAAAAAAAAAAAAAAAAAAAAAAAAAAAAAAAAAAAAAAAAAAAAAAAAAAAAAAAAAAAAAAAAAAAAAAAAAAAAAAAAAAAAAAAAAAAAAAAAAAAAAAAAAAAAAAAAAAAAAAAAAAAAAAAAAAAAAAAAAAAAAAAAAAAAAAAAAAAAAAAAAAAAAAAAAAAAAAAAAAAAAAAAAAAAAAAAAAAAAAAAAAAAAAAAAAAAAAAAAAAAAAAAAAAAAAAAAAAAAAAAAAAAAAAAAAAAAAAAAAAAAAAAAAAAAAAAAAAAAAAAAAAAAAAAAAAAAAAAAAAAAAAAAAAAAAAAAAAAAAAAAAAAAAAAAAAAAAAAAAAAAAAAAAAAAAAAAAAAAAAAAAAAAAAAAAAAAAAAAAAAAAAAAAAAAAAAAAAAAAAAAAAAAAAAAAAAAAAAAAAAAAAAAAAAAAAAAAAAAAAAAAAAAAAAAAAAAAAAAAAAAAAAAAAAAAAAAAAAAAAAAAAAAAAAAAAAAAAAAAAAAAAAAAAAAAAAAAAAAAAAAAAAAAAAAAAAAAAAAAAAAAAAAAAAAAAAAAAAAAAAAAAAAAAAAAAAAAAAAAAAAAAAAAAAAAAAAAAAAAAAAAAAAAAAAAAAAAAAAAAAAAAAAAAAAAAAAAAAAAAAAAAAAAAAAAAAAAAAAAAAAAAAAAAAAAAAAAAAAAAAAAAAAAAAAAAAAAAAAAAAAAAAAAAAAAAAAAAAAAAAAAAAAAAAAAAAAAAAAAAAAAAAAAAAAAAAAAAAAAAAAAAAAAAAAAAAAAAAAAAAAAAAAAAAAAAAAAAAAAAAAAAAAAAAAAAAAAAAAAAAAAAAAAAAAAAAAAAAAAAAAAAAAAAAAAAAAAAAAAAAAAAAAAAAAAAAAAAAAAAAAAAAAAAAAAAAAAAAAAAAAAAAAAAAAAAAAAAAAAAAAAAAAAAAAAAAAAAAAAAAAAAAAAAAAAAAAAAAAAAAAAAAAAAAAAAAAAAAAAAAAAAAAAAAAAAAAAAAAAAAAAAAAAAAAAAAAAAAAAAAAAAAAAAAAAAAAAAAAAAAAAAAAAAAAAAAAAAAAAAAAAAAAAAAAAAAAAAAAAAAAAAAAAAAAAAAAAAAAAAAAAAAAAAAAAAAAAAAAAAAAAAAAAAAAAAAAAAAAAAAAAAAAAAAAAAAAAAAAAAAAAAAAAAAAAAAAAAAAAAAAAAAAAAAAAAAAAAAAAAAAAAAAAAAAAAAAAAAAAAAAAAAAAAAAAAAAAAAAAAAAAAAAAAAAAAAAAAAAAAAAAAAAAAAAAAAAAAAAAAAAAAAAAAAAAAAAAAAAAAAAAAAAAAAAAAAAAAAAAAAAAAAAAAAAAAAAAAAAAAAAAAAAAAAAAAAAAAAAAAAAAAAAAAAAAAAAAAAAAAAAAAAAAAAAAAAAAAAAAAAAAAAAAAAAAAAAAAAAAAAAAAAAAAAAAAAAAAAAAAAAAAAAAAAAAAAAAAAAAAAAAAAAAAAAAAAAAAAAAAAAAAAAAAAAAAAAAAAAAAAAAAAAAAAAAAAAAAAAAAAAAAAAAAAAAAAAAAAAAAAAAAAAAAAAAAAAAAAAAAAAAAAAAAAAAAAAAAAAAAAAAAAAAAAAAAAAAAAAAAAAAAAAAAAAAAAAAAAAAAAAAAAAAAAAAAAAAAAAAAAAAAAAAAAAAAAAAAAAAAAAAAAAAAAAAAAAAAAAAAAAAAAAAAAAAAAAAAAAAAAAAAAAAAAAAAAAAAAAAAAAAAAAAAAAAAAAAAAAAAAAAAAAAAAAAAAAAAAAAAAAAAAAAAAAAAAAAAAAAAAAAAAAAAAAAAAAAAAAAAAAAAAAAAAAAAAAAAAAAAAAAAAAAAAAAAAAAAAAAAAAAAAAAAAAAAAAAAAAAAAAAAAAAAAAAAAAAAAAAAAAAAAAAAAAAAAAAAAAAAAAAAAAAAAAAAAAAAAAAAAAAAAAAAAAAAAAAAAAAAAAAAAAAAAAAAAAAAAAAAAAAAAAAAAAAAAAAAAAAAAAAAAAAAAAAAAAAAAAAAAAAAAAAAAAAAAAAAAAAAAAAAAAAAAAAAAAAAAAAAAAAAAAAAAAAAAAAAAAAAAAAAAAAAAAAAAAAAAAAAAAAAAAAAAAAAAAAAAAAAAAAAAAAAAAAAAAAAAAAAAAAAAAAAAAAAAAAAAAAAAAAAAAAAAAAAAAAAAAAAAAAAAAAAAAAAAAAAAAAAAAAAAAAAAAAAAAAAAAAAAAAAAAAAAAAAAAAAAAAAAAAAAAAAAAAAAAAAAAAAAAAAAAAAAAAAAAAAAAAAAAAAAAAAAAAAAAAAAAAAAAAAAAAAAAAAAAAAAAAAAAAAAAAAAAAAAAAAAAAAAAAAAAAAAAAAAAAAAAAAAAAAAAAAAAAAAAAAAAAAAAAAAAAAAAAAAAAAAAAAAAAAAAAAAAAAAAAAAAAAAAAAAAAAAAAAAAAAAAAAAAAAAAAAAAAAAAAAAAAAAAAAAAAAAAAAAAAAAAAAAAAAAAAAAAAAAAAAAAAAAAAAAAAAAAAAAAAAAAAAAAAAAAAAAAAAAAAAAAAAAAAAAAAAAAAAAAAAAAAAAAAAAAAAAAAAAAAAAAAAAAAAAAAAAAAAAAAAAAAAAAAAAAAAAAAAAAAAAAAAAAAAAAAAAAAAAAAAAAAAAAAAAAAAAAAAAAAAAAAAAAAAAAAAAAAAAAAAAAAAAAAAAAAAAAAAAAAAAAAAAAAAAAAAAAAAAAAAAAAAAAAAAAAAAAAAAAAAAAAAAAAAAAAAAAAAAAAAAAAAAAAAAAAAAAAAAAAAAAAAAAAAAAAAAAAAAAAAAAAAAAAAAAAAAAAAAAAAAAAAAAAAAAAAAAAAAAAAAAAAAAAAAAAAAAAAAAAAAAAAAAAAAAAAAAAAAAAAAAAAAAAAAAAAAAAAAAAAAAAAAAAAAAAAAAAAAAAAAAAAAAAAAAAAAAAAAAAAAAAAAAAAAAAAAAAAAAAAAAAAAAAAAAAAAAAAAAAAAAAAAAAAAAAAAAAAAAAAAAAAAAAAAAAAAAAAAAAAAAAAAAAAAAAAAAAAAAAAAAAAAAAAAAAAAAAAAAAAAAAAAAAAAAAAAAAAAAAAAAAAAAAAAAAAAAAAAAAAAAAAAAAAAAAAAAAAAAAAAAAAAAAAAAAAAAAAAAAAAAAAAAAAAAAAAAAAAAAAAAAAAAAAAAAAAAAAAAAAAAAAAAAAAAAAAAAAAAAAAAAAAAAAAAAAAAAAAAAAAAAAAAAAAAAAAAAAAAAAAAAAAAAAAAAAAAAAAAAAAAAAAAAAAAAAAAAAAAAAAAAAAAAAAAAAAAAAAAAAAAAAAAAAAAAAAAAAAAAAAAAAAAAAAAAAAAAAAAAAAAAAAAAAAAAAAAAAAAAAAAAAAAAAAAAAAAAAAAAAAAAAAAAAAAAAAAAAAAAAAAAAAAAAAAAAAAAAAAAAAAAAAAAAAAAAAAAAAAAAAAAAPZYQLQU41sVnnSbZxXpOIUW+PXG1Lsr8E6lGsD27dPZEvS07GakVmUFeUHrz4StknzkiUzLYQLpFdxGZ7rApjybLcg=</c2pa:manifest></metadata><path d="M486.96,340.92l3.95-13.65h-8.26l-7.18-27.67v.02h-9.7v17.95h10.41v9.7h-22.62v-27.65h-1.08v1.44h-6.11c-1.31-.03-2.61.28-3.77.9-1.06.58-1.93,1.45-2.51,2.51-.62,1.16-.93,2.46-.9,3.77v19.03h-12.21v-11.02c-.39,1.39-.98,2.7-1.76,3.91-1.52,2.37-3.73,4.25-6.61,5.62-2.88,1.38-6.27,2.07-10.17,2.07s-7.36-.72-10.13-2.16c-2.78-1.44-4.93-3.3-6.48-5.59-.37-.55-.72-1.12-1.03-1.69-.1.22-.2.43-.3.64-1.48,2.99-3.48,5.29-6,6.89-2.47,1.59-5.35,2.43-8.29,2.41-1.61.01-3.21-.28-4.71-.86-1.37-.52-2.65-1.28-3.77-2.23-1.02-.88-1.92-1.89-2.66-3.02h-.72v18.67h-12.21v-28.56c-.43,2.16-1.23,4.23-2.37,6.12-1.81,3.03-4.4,5.53-7.5,7.22-3.26,1.74-6.9,2.66-10.59,2.66s-7.33-.91-10.59-2.66c-3.1-1.69-5.69-4.19-7.5-7.22-1.56-2.6-2.48-5.54-2.68-8.56-.21-3.03.3-6.06,1.49-8.85h-4.76c-1.31-.03-2.61.28-3.77.9-1.06.58-1.93,1.45-2.51,2.51-.62,1.16-.93,2.46-.9,3.77v19.03h-12.21v-37.35h11.85v5.39h.72c.72-1.72,1.88-3.22,3.37-4.34,1.53-1.17,3.45-1.76,5.75-1.76h3.81v9.28c1.8-2.93,4.34-5.33,7.36-6.98,3.26-1.74,6.9-2.66,10.59-2.66s7.34.91,10.59,2.66c3.1,1.69,5.69,4.18,7.5,7.22,1.14,1.89,1.94,3.96,2.37,6.12v-14.92h12.21v5.03h.72c.74-1.13,1.63-2.14,2.66-3.02,1.12-.95,2.4-1.7,3.77-2.23,1.5-.58,3.1-.87,4.71-.86,2.94-.02,5.82.81,8.29,2.41,2.51,1.6,4.51,3.9,6,6.89,1.49,2.99,2.23,6.48,2.23,10.45,0,1.34-.09,2.68-.27,4.01h8.37c.45,1.44,1.36,2.7,2.58,3.59,1.29.99,2.97,1.49,5.05,1.49,1.29.03,2.57-.22,3.75-.73.97-.42,1.81-1.1,2.41-1.97.54-.8.83-1.74.83-2.7,0-.94-.29-1.86-.83-2.64-.61-.87-1.44-1.57-2.41-2-1.18-.53-2.46-.79-3.75-.76h-10.16v-7.62l10.16-6.35v-.64h-17.15v-10.17h33.36v10.17l-9.85,6.04-.7.26v.76l.13-.06c2.37-.03,4.7.56,6.77,1.72,2.9,1.64,5.04,4.34,5.99,7.53v-18.58h11.85v5.39h.72c.72-1.72,1.88-3.22,3.38-4.34,1.53-1.17,3.45-1.76,5.75-1.76h3.81v.72h1.08v-7.9h12.21v7.9h19.75l6.46,26.93h2.15l7.18-26.93h12.57l-14.36,50.99h-12.57ZM368.13,300.34c-1.21.76-2.17,1.86-2.76,3.16-.67,1.39-1,3.09-1.01,5.1,0,2.01.33,3.71,1.01,5.1.59,1.3,1.55,2.4,2.76,3.16,1.26.71,2.68,1.08,4.13,1.08s2.87-.37,4.13-1.08c1.21-.76,2.17-1.86,2.76-3.16.67-1.39,1.01-3.09,1.01-5.1,0-2.01-.34-3.71-1.01-5.1-.59-1.3-1.55-2.4-2.76-3.16-1.26-.71-2.68-1.08-4.13-1.08s-2.87.37-4.13,1.08ZM327.45,300.41c-1.27.79-2.29,1.93-2.95,3.27-.71,1.54-1.08,3.22-1.08,4.92s.37,3.38,1.08,4.92c.66,1.34,1.68,2.48,2.95,3.27,1.27.79,2.74,1.21,4.23,1.21s2.96-.42,4.23-1.21c1.27-.79,2.29-1.93,2.95-3.27.71-1.54,1.08-3.22,1.08-4.92s-.37-3.38-1.08-4.92c-.51-.99-1.22-1.86-2.08-2.57-.86-.71-1.86-1.23-2.93-1.53-1.07-.31-2.19-.39-3.29-.25-1.1.14-2.17.51-3.12,1.08ZM242.99,327.28v-50.27h24.42c4.07,0,7.68.81,10.84,2.44,3.16,1.63,5.61,3.84,7.36,6.64,1.71,2.77,2.62,5.97,2.62,9.23s-.91,6.46-2.62,9.23c-1.75,2.8-4.2,5.02-7.36,6.64s-6.77,2.44-10.84,2.44h-11.13v13.65h-13.29ZM256.28,301.42h10.77c2.44,0,4.31-.55,5.6-1.65,1.29-1.1,1.94-2.59,1.94-4.45s-.65-3.35-1.94-4.45c-1.29-1.1-3.16-1.65-5.6-1.65h-10.77v12.21Z"></path><path d="M204.2,265.42c2.57,1.46,4.63,3.59,5.74,6.38l10.49,32.28c.76,3.5-.26,7.06-2.29,9.94l-36.53,42.84c-4.69,5.06-9.96,3.9-15.82,2.29-.17-.05-.73-.16-.8-.26l-9.27-28.48c-1.54-5.86.85-11.82,6.67-14.08,4.54-1.76,9.69-2.78,14.17-4.6,6.26-2.54,7.05-11.09.91-14.29-3.46-1.8-6.52-.18-9.91.9-6.12,1.95-12.26,3.89-18.37,5.97-5.15,1.75-7.76,5.26-6.59,10.82l13.43,41.29-.04.34-39.96-9.71c-3.47-1.15-6.37-3.44-7.81-6.89l-10.13-31.16c-1.12-4.24-.15-8.54,2.54-11.95,11.6-13.72,23.48-27.19,35.46-40.59,1.53-1.55,3.4-2.74,5.46-3.46,2.06-.72,4.26-.96,6.43-.7,14.24,2.94,28.45,5.97,42.6,9.31,3.49.82,7.7,1.56,11.05,2.63.9.31,1.76.71,2.58,1.19M190.13,312.88c-1.85,3.67-5.34,7.2-9.22,8.74-4.11,1.62-8.72,2.61-12.88,4.18-1.13.56-1.83,1.65-1.57,2.93l5.83,17.95c.56,1.3,2.13,1.76,3.13.66,9.73-11.48,19.56-22.87,29.26-34.37,2.38-2.83,5.31-5.23,4.28-9.42l-8.04-24.72c-.46-1.04-1.13-1.98-1.98-2.74-.85-.76-1.85-1.33-2.94-1.68-3.4-.98-7.39-1.59-10.89-2.38-10.08-2.28-20.15-4.67-30.25-6.84-4.95-1.06-8.94-2.59-13.06,1.63l-31.37,36.09c-.95,1.47-1.38,3.23-1.21,4.97,2.69,8.82,5.52,17.68,8.59,26.37.73,1.18,1.82,2.1,3.1,2.63l17.23,4.28c.77,0,1.18-.68,1.07-1.39-2.22-7.71-5.38-15.38-7.51-23.09-1.25-4.52-.9-9.56,1.91-13.42,2.42-3.31,5.71-6.99,9.61-8.5l27.56-8.95c15.32-2.95,26.21,13.41,19.34,27.08"></path><path d="M521.41,297.93c-.71,0-1.41-.17-2.02-.52-.6-.34-1.09-.82-1.44-1.41-.35-.59-.53-1.27-.53-1.95,0-.69.18-1.36.53-1.95.35-.59.85-1.07,1.44-1.41.62-.35,1.31-.53,2.02-.52.71,0,1.41.17,2.02.52.6.34,1.09.82,1.44,1.41.35.59.53,1.27.53,1.95,0,.69-.18,1.36-.53,1.95-.35.59-.85,1.07-1.44,1.41-.62.35-1.31.53-2.02.52ZM521.41,296.89c.52,0,1.04-.12,1.5-.36.43-.23.78-.58,1.02-1.01.25-.45.38-.96.37-1.48,0-.52-.12-1.02-.37-1.48-.24-.43-.59-.78-1.02-1.01-.46-.25-.98-.37-1.5-.36-.52,0-1.04.12-1.5.36-.43.23-.78.58-1.02,1.01-.25.45-.38.96-.37,1.48,0,.52.12,1.02.37,1.48.24.43.59.78,1.02,1.01.46.25.98.37,1.5.36h0ZM519.89,295.75v-3.62h1.7c.43-.03.87.09,1.22.35.14.12.25.27.32.44.07.17.1.35.09.54,0,.25-.06.49-.2.7-.13.18-.3.32-.5.41l.81,1.18h-1.18l-.7-1h-.48v1h-1.07ZM521.59,293.86c.14,0,.27-.03.39-.1.04-.03.08-.08.1-.12.02-.05.04-.1.03-.16,0-.06,0-.11-.03-.16-.02-.05-.06-.09-.1-.13-.11-.08-.25-.11-.39-.1h-.63v.78h.63Z"></path></svg>